<?xml version="1.0" encoding="UTF-8" standalone="no"?>
<!DOCTYPE svg PUBLIC "-//W3C//DTD SVG 1.1//EN" "http://www.w3.org/Graphics/SVG/1.1/DTD/svg11.dtd">
<svg width="100%" height="100%" viewBox="0 0 40 40" version="1.1" xmlns="http://www.w3.org/2000/svg" xmlns:xlink="http://www.w3.org/1999/xlink" xml:space="preserve" xmlns:serif="http://www.serif.com/" style="fill-rule:evenodd;clip-rule:evenodd;stroke-linejoin:round;stroke-miterlimit:2;">
    <g>
        <circle cx="20" cy="20" r="20" style="fill:white;"/>
    </g>
    <g transform="matrix(0.0982916,0,0,0.0947548,-9.51146,-3.45464)">
        <path d="M356.623,175.743C316.793,157.49 274.282,154.486 229.201,166.838C225.847,235.797 231.112,273.975 251.086,299.246C254.041,302.986 257.322,306.441 260.941,309.673C260.781,309.534 260.62,309.394 260.46,309.254C270.749,318.587 283.862,326.086 300.197,333.055C330.81,319.907 350.531,304.695 361.145,278.777C344.427,247.506 313.062,216.889 264.229,188.718C326.304,195.292 375.792,218.111 412.605,257.366C398.145,327.892 363.678,343.198 300.197,379.449C211.452,328.736 179.43,319.062 179.43,141.669C256.153,106.924 344.239,106.924 421.058,141.669C421.058,171.532 420.119,196.701 418.147,218.017C398.52,199.704 378.139,185.712 357.011,175.946C356.882,175.878 356.752,175.811 356.623,175.743Z" style="fill:rgb(36,175,248);"/>
    </g>
</svg>
